# Blender v2.90.1 OBJ File: ''
# www.blender.org
mtllib Base_Floor.mtl
o Cube
v -5.000000 0.000000 5.000000
v -5.000000 -1.000000 5.000000
v -5.000000 0.000000 -5.000000
v -5.000000 -1.000000 -5.000000
v -5.000000 0.000000 0.000000
v -5.000000 -1.000000 0.000000
v 5.000000 0.000000 5.000000
v 5.000000 -1.000000 5.000000
v 0.000000 -1.000000 5.000000
v 0.000000 0.000000 5.000000
v 0.000000 0.000000 0.000000
v 0.000000 -1.000000 0.000000
v 5.000000 0.000000 -5.000000
v 5.000000 -1.000000 -5.000000
v 5.000000 0.000000 0.000000
v 5.000000 -1.000000 0.000000
v 0.000000 -1.000000 -5.000000
v 0.000000 0.000000 -5.000000
vt 0.375000 0.250000
vt 0.625000 0.250000
vt 0.625000 0.375000
vt 0.375000 0.375000
vt 0.375000 0.125000
vt 0.625000 0.125000
vt 0.125000 0.500000
vt 0.250000 0.500000
vt 0.250000 0.625000
vt 0.125000 0.625000
vt 0.750000 0.500000
vt 0.875000 0.500000
vt 0.875000 0.625000
vt 0.750000 0.625000
vt 0.375000 0.250000
vt 0.625000 0.250000
vt 0.375000 0.125000
vt 0.625000 0.125000
vt 0.125000 0.500000
vt 0.125000 0.625000
vt 0.875000 0.625000
vt 0.875000 0.500000
vt 0.375000 0.250000
vt 0.375000 0.375000
vt 0.625000 0.375000
vt 0.625000 0.250000
vt 0.125000 0.500000
vt 0.250000 0.500000
vt 0.750000 0.500000
vt 0.875000 0.500000
vt 0.375000 0.250000
vt 0.625000 0.250000
vt 0.125000 0.500000
vt 0.875000 0.500000
vn -1.0000 0.0000 0.0000
vn 0.0000 0.0000 1.0000
vn 0.0000 -1.0000 0.0000
vn 0.0000 1.0000 0.0000
vn 0.0000 0.0000 -1.0000
vn 1.0000 0.0000 0.0000
usemtl Material
s off
f 2/1/1 1/2/1 5/3/1 6/4/1
f 9/5/2 10/6/2 1/2/2 2/1/2
f 2/7/3 6/8/3 12/9/3 9/10/3
f 5/11/4 1/12/4 10/13/4 11/14/4
f 4/15/1 6/4/1 5/3/1 3/16/1
f 17/17/5 4/15/5 3/16/5 18/18/5
f 4/19/3 17/20/3 12/9/3 6/8/3
f 5/11/4 11/14/4 18/21/4 3/22/4
f 8/23/6 16/24/6 15/25/6 7/26/6
f 9/5/2 8/23/2 7/26/2 10/6/2
f 8/27/3 9/10/3 12/9/3 16/28/3
f 15/29/4 11/14/4 10/13/4 7/30/4
f 14/31/6 13/32/6 15/25/6 16/24/6
f 17/17/5 18/18/5 13/32/5 14/31/5
f 14/33/3 16/28/3 12/9/3 17/20/3
f 15/29/4 13/34/4 18/21/4 11/14/4
